<svg xmlns="http://www.w3.org/2000/svg" width="20" height="20" viewBox="0 0 20 20"><linearGradient id="a" gradientUnits="userSpaceOnUse" x1=".326" y1=".332" x2="19.668" y2="19.675"><stop offset="0" stop-color="#3c5a99"/><stop offset="1" stop-color="#234177"/></linearGradient><path fill-rule="evenodd" clip-rule="evenodd" fill="url(#a)" d="M13.789 19.989v-7.728h2.59c.104-.485.14-.997.207-1.512.065-.506.138-1.019.207-1.513h-3.004c0-.625-.009-1.328.021-1.947.011-.222-.002-.426.042-.601.005-.022.032-.055.041-.083.029-.091.051-.164.104-.248.084-.134.23-.268.353-.332.306-.16.726-.165 1.181-.165h1.347c.048-.863.007-1.816.021-2.714-.477-.093-.977-.08-1.471-.104-.518-.025-1.028-.041-1.513.021-1.801.229-2.898 1.347-3.169 3.107-.137.889-.026 1.949-.063 3.065h-2.61v3.024h2.61v7.728H2.128c-.412 0-.831.034-1.202-.021a1.034 1.034 0 0 1-.829-.642c-.007-.019-.037-.05-.042-.063-.044-.137-.041-.335-.041-.538V1.985c0-.395-.041-.801.021-1.119C.122.416.526.069.947.017c.354-.044.759 0 1.139 0h15.951c.48 0 .979-.063 1.305.082.313.141.599.471.643.892.037.364 0 .752 0 1.139v15.765c0 .455.061 1.05-.063 1.388-.116.32-.428.608-.767.684-.199.045-.435.021-.663.021l-4.703.001z"/></svg>