<svg xmlns="http://www.w3.org/2000/svg" width="20" height="20" viewBox="0 0 20 20"><linearGradient id="a" gradientUnits="userSpaceOnUse" x1=".293" y1=".307" x2="19.694" y2="19.708"><stop offset="0" stop-color="#dc4a38"/><stop offset="1" stop-color="#af352c"/></linearGradient><path fill-rule="evenodd" clip-rule="evenodd" fill="url(#a)" d="M8.651 19.086c.201.201.391.43.555.684h-7.8c-.383.001-.912.038-1.111-.085a.67.67 0 0 1-.169-.161c.369-.731 1.004-1.192 1.625-1.503.661-.334 1.544-.558 2.468-.674.306-.04.656-.059.991-.075.26-.014.808-.068 1.085 0 .224.054.465.287.635.411.606.441 1.243.923 1.721 1.403zm-.654-9.78a7.472 7.472 0 0 0-.506-2.786c-.324-.836-.668-1.454-1.252-2.038-.532-.531-1.305-1.013-2.394-.898-.65.07-1.136.351-1.532.691-.417.36-.675.809-.823 1.366-.318 1.196-.044 2.709.337 3.74.368.992 1.016 1.999 1.87 2.504a2.838 2.838 0 0 0 1.775.375c1.536-.163 2.525-1.265 2.525-2.954zM19.982 6.34h-3.048c-.046.991-.008 2.064-.019 3.085h-1.532V6.34h-3.05c-.043-.479-.007-1.04-.019-1.551h3.068v-3.01c-.004-.027-.004-.053.016-.056h1.517v3.066h3.066V1.236c0-.225.016-.415-.031-.566a.603.603 0 0 0-.268-.342c-.209-.126-.706-.096-1.101-.096H1.789C1.393.232.924.203.571.242.319.271.101.418.027.681c-.044.157-.021.386-.021.577v3.541c.269-.301.557-.564.848-.784 1.232-.926 2.978-1.532 4.973-1.627 2.124-.1 4.348.075 6.563 0 .026.042-.104.098-.187.15-.563.35-1.196.749-1.756 1.103H8.576c1.261 1.041 2.51 2.66 2.037 5.16-.197 1.049-.754 1.784-1.345 2.375-.609.609-1.477 1.063-1.851 1.851-.149.313-.162.838-.019 1.161.215.488.702.775 1.121 1.104.434.338.862.679 1.217.99.765.67 1.515 1.436 1.85 2.58.087.297.133.604.151.909h7.177c.209 0 .434.025.599-.01a.62.62 0 0 0 .47-.535c.039-.381 0-.794 0-1.197L19.982 6.34zM.006 11.69v5.807c1.463-.702 3.217-1.021 5.28-1.123-.256-.37-.644-.838-.805-1.423-.174-.635-.058-1.326.207-1.85-1.895.244-3.288-.256-4.301-1.065a4.25 4.25 0 0 1-.381-.346z"/></svg>