<svg xmlns="http://www.w3.org/2000/svg" width="18" height="18" viewBox="0 0 18 18"><defs><linearGradient id="a" x1="23783.6" y1="-33989.28" x2="24158.6" y2="-34364.28" gradientTransform="matrix(.04 0 0 -.04 -854.88 -1220.44)" gradientUnits="userSpaceOnUse"><stop offset="0" stop-color="#ccc"/><stop offset="1" stop-color="#b3b3b3"/></linearGradient><linearGradient id="b" x1="26590.5" y1="-38041.11" x2="26857.06" y2="-38307.67" gradientTransform="matrix(.03 0 0 -.03 -847.54 -1210.84)" gradientUnits="userSpaceOnUse"><stop offset="0" stop-color="#c9473d"/><stop offset="1" stop-color="#9e3939"/></linearGradient></defs><path d="M14.76 5.58v10.26H3.24V2.16h8.21z" fill="#fff"/><path d="M14.76 5.58v10.26H3.24V2.16h8.21z" fill="#f9fafa"/><path d="M11.23 2.34l.29 3.6 3.24-.36z" fill="#fff"/><path d="M11.61 1.79H2.7V16.2h12.6V5.51zm2.69 3.72h-2.67V2.82zm.28 10H3.42v-13h7.38v3.86h3.78z" fill="url(#a)"/><path d="M14.25 11.88a1.83 1.83 0 0 1-1.83 1.83H2.83A1.83 1.83 0 0 1 1 11.89v-2.3a1.83 1.83 0 0 1 1.83-1.83h9.59a1.83 1.83 0 0 1 1.83 1.83z" fill="url(#b)"/><path d="M5.19 12.43l-.66-1.35h-.48v1.35H3.4V9.05h1.32a1 1 0 0 1 1.1 1 .91.91 0 0 1-.62.95l.8 1.43zm-.51-2.79h-.63v.89h.62a.45.45 0 1 0 0-.89zm3.74 2.79l-.2-.6H7l-.2.6h-.67l1.23-3.38h.52l1.23 3.38zm-.79-2.38l-.43 1.23H8zm3.7 2.38l-.66-1.35h-.47v1.35h-.67V9.05h1.32a1 1 0 0 1 1.1 1 .91.91 0 0 1-.62.89l.75 1.46zm-.51-2.79h-.62v.89h.62a.45.45 0 1 0 0-.89z" fill="#fff"/></svg>