<svg xmlns="http://www.w3.org/2000/svg" width="18" height="18" viewBox="0 0 18 18"><defs><linearGradient id="a" x1="23783.6" y1="-33989.28" x2="24158.6" y2="-34364.28" gradientTransform="matrix(.04 0 0 -.04 -854.88 -1220.44)" gradientUnits="userSpaceOnUse"><stop offset="0" stop-color="#ccc"/><stop offset="1" stop-color="#b3b3b3"/></linearGradient><linearGradient id="b" x1="26613.94" y1="-38017.67" x2="26927.37" y2="-38331.11" gradientTransform="matrix(.03 0 0 -.03 -847.54 -1210.84)" gradientUnits="userSpaceOnUse"><stop offset="0" stop-color="#c9473d"/><stop offset="1" stop-color="#9e3939"/></linearGradient></defs><path d="M14.76 5.58v10.26H3.24V2.16h8.21z" fill="#fff"/><path d="M14.76 5.58v10.26H3.24V2.16h8.21z" fill="#f9fafa"/><path d="M11.23 2.34l.29 3.6 3.24-.36z" fill="#fff"/><path d="M11.61 1.79H2.7V16.2h12.6V5.51zm2.69 3.72h-2.67V2.82zm.28 10H3.42v-13h7.38v3.86h3.78z" fill="url(#a)"/><path d="M17.25 11.88a1.83 1.83 0 0 1-1.83 1.83H2.83A1.83 1.83 0 0 1 1 11.89v-2.3a1.83 1.83 0 0 1 1.83-1.83h12.59a1.83 1.83 0 0 1 1.83 1.83z" fill="url(#b)"/><path d="M3.06 11.16h-.65v1.27h-.66V9.05h1.31a1.05 1.05 0 1 1 0 2.11zM3 9.64h-.59v.93H3a.46.46 0 1 0 0-.93zm3.54 2.79V11H5.4v1.41h-.66V9.05h.66v1.38h1.14V9.05h.66v3.38zm2.74-2.79v2.79h-.66V9.64h-.88v-.59h2.42v.59zm3.82 2.79v-2l-.65 1.28H12l-.65-1.28v2h-.65V9.05h.65l.88 1.83.88-1.83h.65v3.38zm1.45 0V9.05h.66v2.79h1.53v.59z" fill="#fff"/></svg>