<svg xmlns="http://www.w3.org/2000/svg" width="18" height="18" viewBox="0 0 18 18"><defs><linearGradient id="a" x1="23783.6" y1="-33989.28" x2="24158.6" y2="-34364.28" gradientTransform="matrix(.04 0 0 -.04 -854.88 -1220.44)" gradientUnits="userSpaceOnUse"><stop offset="0" stop-color="#ccc"/><stop offset="1" stop-color="#b3b3b3"/></linearGradient><linearGradient id="b" x1="26590.5" y1="-38041.11" x2="26857.06" y2="-38307.67" gradientTransform="matrix(.03 0 0 -.03 -847.54 -1210.84)" gradientUnits="userSpaceOnUse"><stop offset="0" stop-color="#196b99"/><stop offset="1" stop-color="#0d5c7f"/></linearGradient></defs><path d="M14.76 5.58v10.26H3.24V2.16h8.21z" fill="#fff"/><path d="M14.76 5.58v10.26H3.24V2.16h8.21z" fill="#f9fafa"/><path d="M11.23 2.34l.29 3.6 3.24-.36z" fill="#fff"/><path d="M11.61 1.79H2.7V16.2h12.6V5.51zm2.69 3.72h-2.67V2.82zm.28 10H3.42v-13h7.38v3.86h3.78z" fill="url(#a)"/><path d="M14.25 11.88a1.83 1.83 0 0 1-1.83 1.83H2.83A1.83 1.83 0 0 1 1 11.89v-2.3a1.83 1.83 0 0 1 1.83-1.83h9.59a1.83 1.83 0 0 1 1.83 1.83z" fill="url(#b)"/><path d="M3.37 12.46A1.59 1.59 0 0 1 2.14 12l.43-.43a1.11 1.11 0 0 0 .82.28c.39 0 .6-.15.6-.42a.38.38 0 0 0-.1-.29.5.5 0 0 0-.3-.12L3.17 11a1.15 1.15 0 0 1-.66-.28.9.9 0 0 1-.24-.67A1 1 0 0 1 3.45 9a1.45 1.45 0 0 1 1.09.39l-.42.41a.94.94 0 0 0-.69-.23c-.35 0-.52.19-.52.43a.33.33 0 0 0 .1.24.58.58 0 0 0 .31.13l.4.06a1.11 1.11 0 0 1 .65.26.94.94 0 0 1 .26.72c0 .68-.55 1.05-1.26 1.05zm3.11-.03H6L4.87 9.05h.68l.68 2.2.68-2.2h.69zm3.52-.35a1.27 1.27 0 0 1-1 .38 1.24 1.24 0 0 1-.91-.37 1 1 0 0 1-.28-.51 4.59 4.59 0 0 1-.06-.84 4.59 4.59 0 0 1 .15-.84 1 1 0 0 1 .28-.51A1.24 1.24 0 0 1 9.09 9a1.21 1.21 0 0 1 1.27 1.08H9.7a.58.58 0 0 0-.61-.49.54.54 0 0 0-.42.18c-.12.16-.16.28-.16.95s0 .8.16 1a.52.52 0 0 0 .42.17.61.61 0 0 0 .47-.19.66.66 0 0 0 .15-.45v-.15h-.62v-.55h1.28V11a1.35 1.35 0 0 1-.37 1.08zm.78.35v-.53l1.44-2.26h-1.37v-.59H13v.52l-1.45 2.27H13v.59z" fill="#fff"/></svg>