<svg xmlns="http://www.w3.org/2000/svg" width="18" height="18" viewBox="0 0 18 18"><defs><linearGradient id="a" x1="23783.6" y1="-33989.28" x2="24158.6" y2="-34364.28" gradientTransform="matrix(.04 0 0 -.04 -854.88 -1220.44)" gradientUnits="userSpaceOnUse"><stop offset="0" stop-color="#ccc"/><stop offset="1" stop-color="#b3b3b3"/></linearGradient><linearGradient id="b" x1="26590.5" y1="-38041.11" x2="26857.06" y2="-38307.67" gradientTransform="matrix(.03 0 0 -.03 -847.54 -1210.84)" gradientUnits="userSpaceOnUse"><stop offset="0" stop-color="#74b739"/><stop offset="1" stop-color="#56991c"/></linearGradient></defs><path d="M14.76 5.58v10.26H3.24V2.16h8.21z" fill="#fff"/><path d="M14.76 5.58v10.26H3.24V2.16h8.21z" fill="#f9fafa"/><path d="M11.23 2.34l.29 3.6 3.24-.36z" fill="#fff"/><path d="M11.61 1.79H2.7V16.2h12.6V5.51zm2.69 3.72h-2.67V2.82zm.28 10H3.42v-13h7.38v3.86h3.78z" fill="url(#a)"/><path d="M14.25 11.88a1.83 1.83 0 0 1-1.83 1.83H2.83A1.83 1.83 0 0 1 1 11.89v-2.3a1.83 1.83 0 0 1 1.83-1.83h9.59a1.83 1.83 0 0 1 1.83 1.83z" fill="url(#b)"/><path d="M5.61 12.43v-2L5 11.74h-.49l-.65-1.28v2h-.65V9.05h.65l.88 1.83.88-1.83h.65v3.38zm3.49-.34a1.31 1.31 0 0 1-1.83 0c-.34-.34-.33-.76-.33-1.35s0-1 .33-1.35a1.31 1.31 0 0 1 1.83 0c.34.34.34.76.34 1.35s0 1.01-.34 1.35zm-.49-2.3a.55.55 0 0 0-.42-.18.56.56 0 0 0-.43.18c-.13.14-.16.3-.16.95s0 .81.16.95a.56.56 0 0 0 .43.18.55.55 0 0 0 .42-.18c.13-.14.17-.3.17-.95s-.04-.8-.17-.95zm2.69 2.64h-.5L9.69 9.05h.68l.68 2.2.68-2.2h.69z" fill="#fff"/></svg>