<svg xmlns="http://www.w3.org/2000/svg" width="18" height="18" viewBox="0 0 18 18"><defs><linearGradient id="a" x1="23783.6" y1="-33989.28" x2="24158.6" y2="-34364.28" gradientTransform="matrix(.04 0 0 -.04 -854.88 -1220.44)" gradientUnits="userSpaceOnUse"><stop offset="0" stop-color="#ccc"/><stop offset="1" stop-color="#b3b3b3"/></linearGradient><linearGradient id="b" x1="26590.5" y1="-38041.11" x2="26857.06" y2="-38307.67" gradientTransform="matrix(.03 0 0 -.03 -847.54 -1210.84)" gradientUnits="userSpaceOnUse"><stop offset="0" stop-color="#5cc3f3"/><stop offset="1" stop-color="#5aaaf1"/></linearGradient></defs><path d="M14.76 5.58v10.26H3.24V2.16h8.21z" fill="#fff"/><path d="M14.76 5.58v10.26H3.24V2.16h8.21z" fill="#f9fafa"/><path d="M11.23 2.34l.29 3.6 3.24-.36z" fill="#fff"/><path d="M11.61 1.79H2.7V16.2h12.6V5.51zm2.69 3.72h-2.67V2.82zm.28 10H3.42v-13h7.38v3.86h3.78z" fill="url(#a)"/><path d="M14.25 11.88a1.83 1.83 0 0 1-1.83 1.83H2.83A1.83 1.83 0 0 1 1 11.89v-2.3a1.83 1.83 0 0 1 1.83-1.83h9.59a1.83 1.83 0 0 1 1.83 1.83z" fill="url(#b)"/><path d="M4.05 12.43v-2l-.65 1.28H3l-.65-1.28v2h-.7V9.05h.65l.88 1.83.88-1.83h.65v3.38zm2.76-1.27h-.65v1.27H5.5V9.05h1.31a1.05 1.05 0 1 1 0 2.11zm0-1.52h-.65v.93h.62a.46.46 0 1 0 0-.93zm1.67 2.79V9.05h2.23v.59H9.14v.79h1.33V11H9.14v.82h1.57v.59zm4.96-.35a1.27 1.27 0 0 1-1 .38 1.24 1.24 0 0 1-.91-.37 1 1 0 0 1-.28-.51 4.6 4.6 0 0 1-.06-.84 4.6 4.6 0 0 1 .06-.84 1 1 0 0 1 .28-.51 1.24 1.24 0 0 1 .96-.39 1.21 1.21 0 0 1 1.27 1.08h-.66a.57.57 0 0 0-.61-.49.54.54 0 0 0-.42.18c-.12.16-.16.28-.16.95s0 .8.16 1a.52.52 0 0 0 .42.17.61.61 0 0 0 .47-.19.67.67 0 0 0 .15-.45v-.15h-.62v-.55h1.28V11a1.35 1.35 0 0 1-.33 1.08z" fill="#fff"/></svg>