<svg xmlns="http://www.w3.org/2000/svg" width="18" height="18" viewBox="0 0 18 18"><defs><linearGradient id="a" x1="23783.6" y1="-33989.28" x2="24158.6" y2="-34364.28" gradientTransform="matrix(.04 0 0 -.04 -854.88 -1220.44)" gradientUnits="userSpaceOnUse"><stop offset="0" stop-color="#ccc"/><stop offset="1" stop-color="#b3b3b3"/></linearGradient><linearGradient id="b" x1="26590.5" y1="-38041.11" x2="26857.06" y2="-38307.67" gradientTransform="matrix(.03 0 0 -.03 -847.54 -1210.84)" gradientUnits="userSpaceOnUse"><stop offset="0" stop-color="#c9473d"/><stop offset="1" stop-color="#9e3939"/></linearGradient></defs><path d="M14.76 5.58v10.26H3.24V2.16h8.21z" fill="#fff"/><path d="M14.76 5.58v10.26H3.24V2.16h8.21z" fill="#f9fafa"/><path d="M11.23 2.34l.29 3.6 3.24-.36z" fill="#fff"/><path d="M11.61 1.79H2.7V16.2h12.6V5.51zm2.69 3.72h-2.67V2.82zm.28 10H3.42v-13h7.38v3.86h3.78z" fill="url(#a)"/><path d="M14.25 11.88a1.83 1.83 0 0 1-1.83 1.83H2.83A1.83 1.83 0 0 1 1 11.89v-2.3a1.83 1.83 0 0 1 1.83-1.83h9.59a1.83 1.83 0 0 1 1.83 1.83z" fill="url(#b)"/><path d="M5.23 12.43V11H4.09v1.41h-.66V9.05h.66v1.38h1.14V9.05h.66v3.38zm3.57.15l-.3-.3a1.33 1.33 0 0 1-1.6-.18c-.34-.34-.33-.76-.33-1.35s0-1 .33-1.35a1.31 1.31 0 0 1 1.83 0c.34.34.34.76.34 1.35a2 2 0 0 1-.21 1.2l.29.29zm-.56-2.79a.55.55 0 0 0-.42-.18.56.56 0 0 0-.43.18c-.13.14-.16.3-.16.95s0 .81.16.95a.56.56 0 0 0 .43.18.38.38 0 0 0 .18-.06l-.29-.29.35-.35.25.25a2.17 2.17 0 0 0 .06-.68c.04-.65 0-.8-.13-.95zm3.19 2.64l-.66-1.18-.65 1.18h-.75l1-1.73-1-1.65h.75l.59 1.09.59-1.09h.75l-1 1.65 1.05 1.73z" fill="#fff"/></svg>